<svg xmlns="http://www.w3.org/2000/svg"  viewBox="0 0 100 100" width="100px" height="100px"><path d="M33.879,94c-4.688,0-8.502-3.814-8.502-8.503c0-0.41,0.036-0.823,0.107-1.232c0.022-0.176,0.052-0.35,0.089-0.521 L26.389,80h-7.832c-4.668,0-8.466-3.79-8.466-8.448c0-0.407,0.036-0.819,0.107-1.229c0.023-0.183,0.055-0.364,0.095-0.543 L21.866,16.64c0.062-0.28,0.138-0.542,0.227-0.793C23.229,12.342,26.426,10,30.104,10h26.393c7.902,0,17.193,4.259,20.737,13.522 c5.014,1.103,9.449,3.753,12.499,7.546c2.899,3.604,5.925,9.917,3.875,19.523C90.568,64.812,78.871,74,63.81,74h-4.422 l-2.849,13.246c-0.083,0.381-0.197,0.747-0.341,1.099c-1.084,3.046-3.771,5.198-6.967,5.577C48.902,93.974,48.569,94,48.237,94 H33.879z" opacity=".35"/><path fill="#f2f2f2" d="M31.879,92c-4.688,0-8.502-3.814-8.502-8.503c0-0.41,0.036-0.823,0.107-1.232 c0.022-0.176,0.052-0.35,0.089-0.521L24.389,78h-7.832c-4.668,0-8.466-3.79-8.466-8.448c0-0.407,0.036-0.819,0.107-1.229 c0.023-0.183,0.055-0.364,0.095-0.543L19.866,14.64c0.062-0.28,0.138-0.542,0.227-0.793C21.229,10.342,24.426,8,28.104,8h26.393 c7.902,0,17.193,4.259,20.737,13.522c5.014,1.103,9.449,3.753,12.499,7.546c2.899,3.604,5.925,9.917,3.875,19.523 C88.568,62.812,76.871,72,61.81,72h-4.422l-2.849,13.246c-0.083,0.381-0.197,0.747-0.341,1.099 c-1.084,3.046-3.771,5.198-6.967,5.577C46.902,91.974,46.569,92,46.237,92H31.879z"/><path fill="#2785bd" d="M45.186,30.327l24.766-0.476c0.037-0.04,0.168-1.414,0.205-1.453 C69.538,18.902,61.548,14.5,54.497,14.5H28.104c-0.932,0-1.675,0.658-1.877,1.527l-0.01-0.004L14.642,69.169l0.026,0.002 c-0.028,0.126-0.077,0.246-0.077,0.381c0,1.087,0.879,1.948,1.966,1.948h17.337L38.117,52C38.117,52,44.261,30.327,45.186,30.327z"/><path fill="#70bfff" d="M70.092,27.427c0.106,1.758-0.01,3.67-0.46,5.783C67.062,45.239,57.77,51.5,46.286,51.5 c0,0-4.837-2.862-6.52-2.862c-1.04,0-1.362,2.043-1.585,3.106l-4.287,20.064l-3.965,11.298l0.026,0.002 c-0.028,0.128-0.078,0.25-0.078,0.389c0,1.107,0.895,2.003,2.003,2.003h14.358l0.026-0.02c0.941-0.014,1.689-0.686,1.884-1.571 l0.036-0.03l3.612-16.778c0,0,0.251-1.601,1.934-1.601s8.08,0,8.08,0c11.484,0,20.871-6.232,23.443-18.264 C88.146,33.671,78.47,27.477,70.092,27.427z"/><path fill="#2b59a1" d="M69.651,33.51c-3.655,20.91-31.503,19.576-31.451,17.956c0.046-1.444,4.375-21.048,4.375-21.048 l0.009,0.004c0.196-0.834,0.907-1.447,1.797-1.447h25.683c0.021-0.023,0.038-0.041,0.055-0.059 C70.134,30.337,69.939,31.861,69.651,33.51z"/><path fill="#40396e" d="M46.237,87H31.879c-1.931,0-3.502-1.571-3.502-3.503c0-0.193,0.026-0.359,0.056-0.489 c0.005-0.074,0.015-0.147,0.03-0.22L30.596,73H16.557c-1.911,0-3.466-1.547-3.466-3.448c0-0.193,0.027-0.359,0.057-0.489 c0.004-0.071,0.014-0.143,0.029-0.213l11.575-53.146c0.019-0.083,0.043-0.164,0.074-0.241C25.267,14.002,26.584,13,28.104,13 h26.393c7.112,0,15.103,4.075,16.841,12.974c4.998,0.351,9.603,2.626,12.499,6.227c2.22,2.76,4.521,7.663,2.882,15.349 C84.153,59.547,74.608,67,61.809,67h-8.079c-0.265,0-0.417,0.112-0.452,0.333L49.65,84.194c-0.026,0.121-0.066,0.236-0.12,0.346 c-0.426,1.351-1.604,2.308-3,2.428C46.433,86.989,46.334,87,46.237,87z M31.383,83.577C31.422,83.816,31.629,84,31.879,84h14.155 c0.069-0.012,0.138-0.019,0.206-0.02c0.264-0.004,0.403-0.215,0.442-0.395c0.021-0.094,0.051-0.186,0.089-0.273l3.558-16.527 C50.47,65.876,51.384,64,53.729,64h8.079c11.475,0,19.69-6.384,21.977-17.077c1.103-5.17,0.312-9.611-2.286-12.843 c-2.359-2.933-6.142-4.796-10.28-5.107c-0.253,0.279-0.61,0.464-1.015,0.49c-0.819,0.048-1.517-0.552-1.591-1.361 C67.858,19.787,60.767,16,54.497,16H28.104c-0.244,0-0.377,0.198-0.416,0.367c-0.012,0.051-0.026,0.101-0.043,0.149L16.166,69.225 c-0.003,0.088-0.013,0.177-0.032,0.265c-0.011,0.049-0.022,0.097-0.035,0.145C16.138,69.845,16.324,70,16.557,70h15.901 c0.454,0,0.884,0.205,1.168,0.559c0.285,0.354,0.395,0.817,0.298,1.261l-2.471,11.34c-0.003,0.092-0.014,0.184-0.033,0.274 L31.383,83.577z"/></svg>