<svg xmlns="http://www.w3.org/2000/svg"  viewBox="0 0 100 100" width="100px" height="100px"><g opacity=".35"><circle cx="52" cy="52" r="44"/><path d="M52,91c-21.505,0-39-17.495-39-39s17.495-39,39-39s39,17.495,39,39S73.505,91,52,91z"/></g><circle cx="50" cy="50" r="44" fill="#f2f2f2"/><path fill="#40396e" d="M50,89c-21.505,0-39-17.495-39-39s17.495-39,39-39s39,17.495,39,39S71.505,89,50,89z"/><circle cx="50" cy="50" r="37.5" fill="#de5147"/><path fill="#f2f2f2" d="M50.832,26.405c-16.186,0-24.779,10.865-24.779,22.693c0,5.501,2.928,12.348,7.612,14.528 c0.71,0.33,1.09,0.188,1.253-0.5c0.125-0.522,0.757-3.069,1.041-4.253c0.091-0.378,0.046-0.702-0.26-1.075 c-1.551-1.881-2.791-5.336-2.791-8.559c0-8.272,6.262-16.275,16.931-16.275c9.212,0,15.662,6.278,15.662,15.257 c0,10.144-5.123,17.172-11.788,17.172c-3.681,0-6.437-3.045-5.553-6.779c1.06-4.457,3.107-9.265,3.107-12.485 c0-2.879-1.543-5.282-4.744-5.282c-3.763,0-6.785,3.891-6.785,9.107c0,3.319,1.122,5.566,1.122,5.566s-3.717,15.715-4.398,18.64 c-0.754,3.229-0.46,7.766-0.134,10.731l0,0c0.846,0.332,1.692,0.663,2.566,0.934l0,0c1.532-2.49,3.816-6.573,4.662-9.829 c0.457-1.755,2.338-8.915,2.338-8.915c1.222,2.332,4.793,4.307,8.593,4.307c11.309,0,19.46-10.401,19.46-23.325 C73.951,35.673,63.842,26.405,50.832,26.405z"/><g><path fill="#40396e" d="M50,89c-21.505,0-39-17.495-39-39s17.495-39,39-39s39,17.495,39,39S71.505,89,50,89z M50,14 c-19.851,0-36,16.149-36,36s16.149,36,36,36s36-16.149,36-36S69.851,14,50,14z"/></g></svg>