<svg xmlns="http://www.w3.org/2000/svg"  viewBox="0 0 100 100" width="100px" height="100px" baseProfile="basic"><path d="M17.5,93c-3.584,0-6.5-2.916-6.5-6.5v-69c0-3.584,2.916-6.5,6.5-6.5h69c3.584,0,6.5,2.916,6.5,6.5v69	c0,3.584-2.916,6.5-6.5,6.5H17.5z" opacity=".35"/><path fill="#f2f2f2" d="M15.5,91C11.916,91,9,88.084,9,84.5v-69C9,11.916,11.916,9,15.5,9h69c3.584,0,6.5,2.916,6.5,6.5v69	c0,3.584-2.916,6.5-6.5,6.5H15.5z"/><rect width="69" height="69" x="15.5" y="15.5" fill="#d9eeff"/><rect width="32.5" height="32.5" x="15.5" y="52" fill="#2785bd"/><rect width="32.5" height="32.5" x="15.5" y="15.5" fill="#2785bd"/><rect width="32.5" height="32.5" x="52" y="15.5" fill="#2785bd"/><rect width="32.5" height="32.5" x="52" y="52" fill="#2785bd"/><path fill="#40396e" d="M84.5,86h-69c-0.829,0-1.5-0.672-1.5-1.5v-69c0-0.828,0.671-1.5,1.5-1.5h69	c0.829,0,1.5,0.672,1.5,1.5v69C86,85.328,85.329,86,84.5,86z M17,83h66V17H17V83z"/></svg>